PathFileType	3	(X/Y/Z)	C:\Users\koon_\Desktop\
DataRate	CameraRate	NumFrames	NumMarkers	Units	OrigDataRate	OrigDataStartFrame	OrigNumFrames
100.0	100.0	13	27	mm	100.0	1346	3589	
Frame#	Time	get:LFHD			get:RFHD			get:LBHD			get:RBHD			get:C7			get:T10			get:CLAV			get:STRN			get:RBAK			get:LSHO			get:LUPA			get:LELB			get:LFRA			get:LWRA			get:LWRB			get:LFIN			get:RSHO			get:RUPA			get:RELB			get:RFRA			get:RWRA			get:RWRB			get:RFIN			get:LASI			get:RASI			get:LPSI			get:RPSI			
		X1	Y1	Z1	X2	Y2	Z2	X3	Y3	Z3	X4	Y4	Z4	X5	Y5	Z5	X6	Y6	Z6	X7	Y7	Z7	X8	Y8	Z8	X9	Y9	Z9	X10	Y10	Z10	X11	Y11	Z11	X12	Y12	Z12	X13	Y13	Z13	X14	Y14	Z14	X15	Y15	Z15	X16	Y16	Z16	X17	Y17	Z17	X18	Y18	Z18	X19	Y19	Z19	X20	Y20	Z20	X21	Y21	Z21	X22	Y22	Z22	X23	Y23	Z23	X24	Y24	Z24	X25	Y25	Z25	X26	Y26	Z26	X27	Y27	Z27	
1346	13.45	12.541636	1321.222	173.46568	-128.80885	1320.0018	133.09398	44.568214	1373.6881	50.734161	-101.46568	1365.6418	9.6296377	-11.74488	1223.3235	-88.278282	15.835717	1080.2393	-243.50264	-5.8883357	1040.5959	24.685997	3.1679733	900.0517	-46.217438	-104.18394	1173.5518	-148.57654	143.2627	1189.1355	-4.2568879	205.24515	992.48187	32.754417	263.13864	879.487	-4.3418841	230.23433	862.08075	83.952347	165.82477	750.00037	191.10556	230.64326	715.3811	175.46283	214.47221	694.27631	244.82123	-143.73746	1166.0449	1.3936689	-214.55573	1050.9795	0.70072186	-253.9888	837.54138	-51.327728	-214.69409	792.83148	99.399536	-188.54979	747.81445	174.92497	-230.11011	699.25958	139.62804	-232.48822	710.15295	224.04814	159.11961	819.68634	-166.53479	-132.46664	814.6275	-196.16048	86.6101	867.29572	-357.64056	-2.5344849	858.05511	-370.84396
1347	13.46	13.947736	1312.7125	175.0217	-127.21382	1311.7296	134.0692	46.520149	1365.2118	52.500084	-99.223381	1357.4893	10.741563	-9.6751366	1216.3414	-86.526962	18.196993	1075.6749	-243.48338	-4.0061302	1032.2008	24.519844	5.151989	892.99554	-48.854073	-102.25912	1167.2534	-147.06461	144.79289	1181.1716	-2.1439047	205.70886	985.55164	35.813759	263.74234	871.90094	0.58288026	230.50363	854.75775	88.877388	166.44261	742.86981	196.40189	231.20766	708.13556	180.86235	215.25375	687.4057	250.32515	-141.35452	1158.2716	2.8315437	-212.39339	1043.9976	2.8344672	-252.06435	830.23871	-46.401165	-213.80678	786.30383	105.0029	-188.56734	741.73651	181.03374	-230.29826	693.18719	145.86507	-232.76163	704.40851	230.08212	160.9792	814.78693	-168.82271	-130.28893	810.12	-199.83733	89.630394	862.80493	-360.25693	0.52439123	853.48077	-373.90125
1348	13.47	15.359824	1304.2151	176.47624	-125.70165	1303.3966	135.14575	48.363647	1356.5879	54.062962	-97.350182	1349.0553	11.799427	-7.6847901	1209.3088	-84.910995	20.468609	1070.8923	-243.38174	-2.1518707	1023.6498	24.504082	7.066493	885.84485	-51.240677	-100.30452	1160.8109	-145.66547	146.15321	1172.9646	-0.090078756	206.02919	978.42517	39.092018	264.37601	864.21204	5.2179227	230.87727	847.42279	93.586281	166.94672	735.90564	201.8912	231.71608	701.03778	186.27986	215.85979	680.70984	255.89612	-139.07352	1150.3893	4.2790532	-210.36562	1036.9266	4.8164096	-250.07996	822.875	-41.575397	-213.02237	779.81439	110.50464	-188.66925	735.71948	187.15596	-230.4075	687.11218	152.0856	-233.4093	699.4187	236.25642	162.90648	809.7262	-170.99208	-128.3111	805.36432	-203.37148	92.541016	858.31232	-363.14301	3.3445437	848.72241	-376.80185
1349	13.48	16.599628	1295.7689	177.74258	-124.1582	1295.063	135.40387	50.130753	1347.8464	55.442135	-95.341469	1340.3934	12.682728	-5.76859	1202.0132	-83.189125	22.749115	1065.9385	-243.21304	-0.4372406	1014.9254	24.573965	8.8795662	878.46228	-53.557262	-98.4618	1154.1262	-144.22913	147.533	1164.6084	1.9914581	206.41713	971.23163	42.192009	264.92218	856.38647	9.7872133	231.18149	839.95929	98.460953	167.35117	729.08484	207.30272	232.09354	694.00061	191.81841	216.31041	674.15302	261.57983	-136.80794	1142.3719	5.6739311	-208.28876	1029.86	6.8484626	-248.03638	815.27576	-36.528732	-212.3633	773.29291	116.00733	-188.81946	729.79553	193.41751	-230.56998	681.08246	158.3912	-233.96172	694.07074	242.2906	164.71065	804.44824	-173.15582	-126.38557	800.49365	-206.71315	95.128891	853.32135	-365.55231	5.9440136	843.80273	-379.64566
1350	13.49	17.810629	1287.3247	178.95193	-122.75543	1286.6615	135.84331	51.814957	1338.9564	56.537987	-93.544579	1331.6589	13.359315	-3.9038768	1194.6373	-81.685349	24.867659	1060.6656	-243.05713	1.2175105	1006.1089	24.661879	10.683051	870.96686	-55.699322	-96.68058	1147.3053	-142.84045	148.81802	1156.1857	3.975723	206.6239	963.67548	44.864155	265.42874	848.45734	14.29829	231.41948	832.62335	103.14957	167.63805	722.41205	212.52663	232.21671	687.04547	197.39406	216.59584	667.85913	267.29755	-134.31355	1133.8007	6.427711	-206.17342	1022.527	8.8901653	-245.73878	807.74377	-32.031269	-211.81062	766.77594	121.51328	-189.00003	723.8974	199.42418	-230.74557	675.07489	164.62402	-234.60658	688.86328	248.50705	166.69301	798.94714	-175.23326	-124.54258	795.32434	-209.8571	97.464928	847.93182	-367.63031	8.4141645	838.65497	-382.26419
1351	13.5	19.015882	1278.8981	180.00305	-121.46416	1278.3076	136.42886	53.397346	1330.0959	57.49757	-91.868553	1322.8558	13.872138	-2.1942804	1187.1454	-80.178467	26.865177	1055.2563	-242.82553	2.7163603	997.26343	24.809345	12.356136	863.37152	-57.713757	-95.016273	1140.3274	-141.6424	149.91985	1147.6724	5.9004192	206.97791	956.0061	47.533398	265.88269	840.4458	18.726871	231.54617	825.21228	107.84856	167.7673	715.91534	217.88519	232.27606	680.23785	202.98248	216.7325	661.74731	272.95035	-132.39377	1125.7106	7.853857	-204.2002	1014.933	10.878632	-243.94434	800.13312	-27.302494	-211.21413	760.25879	126.99155	-189.23212	718.07416	205.49731	-230.88225	669.04785	170.78687	-235.2677	683.61072	254.49846	168.81863	793.2934	-177.28052	-122.82899	789.93848	-212.71457	99.988785	842.75378	-370.25537	10.73323	833.36707	-384.77124
1352	13.51	20.104017	1270.467	180.90802	-120.25108	1269.9468	137.04118	54.904091	1321.2146	58.405659	-90.232536	1314.0239	14.408474	-0.61966592	1179.5907	-78.864952	28.75618	1049.712	-242.77298	4.1750965	988.36749	25.079609	13.062059	856.98859	-56.268387	-93.545944	1133.2552	-140.5016	151.01793	1139.1077	7.7152987	207.44504	948.24951	50.283329	266.21613	832.29053	23.014307	231.67833	817.8197	112.23962	167.77234	709.58966	223.20946	232.23221	673.61328	208.54291	216.68799	655.85486	278.71042	-130.41885	1117.1598	8.6580181	-202.24646	1007.3177	12.703756	-242.60811	792.39038	-22.301315	-210.68445	753.73004	132.39986	-189.50281	712.24811	211.66805	-231.10066	663.06213	176.91017	-235.85463	678.11591	260.21487	170.39973	787.39215	-179.10106	-121.17211	784.43976	-215.52638	101.92149	836.93445	-371.96301	12.848867	827.9516	-387.17126
1353	13.52	21.090904	1262.1285	181.69835	-119.15289	1261.5929	137.51198	56.198898	1312.3812	59.191673	-88.795433	1305.1998	14.843303	0.84905612	1172.0387	-77.578346	30.491503	1044.0197	-242.5683	5.4634023	979.55127	25.282059	14.565293	849.24762	-57.950577	-92.227119	1126.1105	-139.3651	151.91573	1130.5728	9.4343624	207.83829	940.42334	52.905003	266.40836	824.12366	27.005983	231.64034	810.46991	116.39322	167.72498	703.44037	228.37001	232.02647	667.24316	214.10565	216.5838	650.24615	284.4166	-128.6801	1108.8193	9.6521749	-200.37169	999.60962	14.473396	-240.8277	784.68726	-17.695736	-210.1378	747.27051	137.74678	-189.7346	706.40405	217.7934	-231.30226	657.18597	182.8744	-236.72516	673.32629	265.76016	171.80237	781.42438	-180.81311	-119.68025	778.83679	-218.17023	104.14803	831.60101	-374.36023	14.846938	822.45209	-389.47629
1354	13.53	22.002115	1253.8218	182.57182	-118.16167	1253.3197	137.97836	57.455196	1303.6799	59.929348	-87.472687	1296.4779	15.30464	2.2481432	1164.4868	-76.301735	32.072491	1038.2592	-242.44394	6.6397328	970.77161	25.50692	15.797379	841.6488	-59.193333	-91.016464	1119.0372	-138.38231	152.82567	1122.0304	11.057915	207.98911	932.62921	55.559586	266.46136	815.88409	30.756964	231.53084	803.18317	120.23991	167.64127	697.55518	233.38766	231.84558	661.08618	219.59535	216.37828	644.93042	290.12131	-127.0434	1100.4125	10.504569	-198.58145	991.87952	16.100729	-238.72693	776.83936	-12.883235	-209.5618	740.81012	143.04141	-189.95831	700.59131	223.55994	-231.4258	651.25079	188.95004	-237.40991	668.87335	270.65637	173.09071	775.48749	-182.34521	-118.33054	772.98138	-220.66939	105.9407	826.12793	-376.30508	16.655563	816.95728	-391.72925
1355	13.54	22.828781	1245.7046	183.27197	-117.24516	1245.0983	138.2818	58.565536	1295.15	60.540524	-86.222214	1287.875	15.619113	3.518517	1157.0022	-75.071846	33.518578	1032.4331	-242.21884	7.6831074	962.10425	25.70233	18.064306	832.4903	-64.184006	-89.896622	1112.001	-137.45413	153.69829	1113.5656	12.604774	207.96619	924.91339	58.165882	266.39929	807.68713	34.397133	231.39006	795.98651	123.87668	167.51491	691.80255	238.62079	231.59082	655.0033	224.84077	216.16325	639.86005	295.86151	-125.58238	1092.079	11.353047	-196.80331	984.02228	17.682577	-237.06285	769.17108	-8.2197161	-209.04869	734.38739	148.52185	-190.12112	694.73651	229.27994	-231.66069	645.42932	194.91371	-237.63358	663.15601	277.02951	174.15982	769.71338	-183.71729	-117.05809	766.92584	-223.00909	107.34499	820.25995	-377.4726	18.313242	811.33881	-393.56653
1356	13.55	23.59214	1237.6793	183.92162	-116.41775	1237.024	138.64758	59.574692	1286.7521	61.177567	-85.141747	1279.3682	15.95995	4.6468239	1149.5477	-73.859482	34.727264	1026.7297	-242.1658	8.6108055	953.48291	25.576454	18.720104	824.74725	-66.009483	-88.890495	1104.9252	-136.41312	154.45119	1105.0601	13.942182	207.85617	917.2348	60.546829	266.18494	799.59656	37.864941	231.10678	788.91241	127.4977	167.25964	686.17657	243.47124	231.24194	649.21582	230.15932	216.0013	634.97803	301.4176	-124.20544	1083.9246	12.146058	-195.29561	976.31744	19.243345	-235.6608	761.65546	-3.5337868	-208.38454	728.10577	153.65738	-190.16228	688.99933	234.9478	-231.69879	639.69379	200.50845	-238.44786	658.36719	282.30719	175.07159	764.04645	-185.05086	-115.92156	760.93652	-225.37294	108.8222	814.74512	-378.84869	19.827253	805.9035	-395.61063
1357	13.56	24.170517	1229.7793	184.57294	-115.65897	1229.0818	139.04567	60.510052	1278.4781	61.699329	-84.05761	1271.0001	16.1651	5.6255994	1142.1597	-72.686386	35.736553	1020.8305	-241.84528	9.4077396	945.03857	25.371447	19.198236	817.07013	-67.583237	-88.060989	1098.0012	-135.52841	155.06021	1096.7379	15.202486	207.50278	909.75299	62.741695	265.84952	791.68811	41.296455	230.63333	782.05194	131.00325	167.00642	680.72742	248.4131	230.70006	643.52869	235.30568	215.95087	630.28082	306.68716	-123.00016	1075.8602	12.924269	-193.8701	968.82135	20.776722	-233.83325	754.39404	0.8777383	-207.68159	721.98938	158.8203	-190.24706	683.38507	240.49559	-231.1978	633.55389	206.7652	-239.21797	653.65497	287.34579	175.83835	758.51941	-186.18216	-114.90794	754.94745	-227.69391	110.60872	809.94287	-381.0907	21.29841	800.55652	-397.49786
1358	13.57	24.77437	1221.9929	185.08719	-115.01268	1221.2078	139.3049	61.37352	1270.2192	62.106003	-83.122368	1262.7295	16.390705	6.4970603	1134.8152	-71.677132	36.562725	1015.1245	-241.68996	10.07635	936.79047	25.072649	19.51314	809.55701	-69.29174	-87.443069	1091.092	-134.52821	155.51239	1088.5123	16.320261	207.08046	902.42804	64.782349	265.40106	784.03412	44.764847	229.99716	775.35358	134.53589	166.61594	675.44287	253.18753	230.08966	637.88776	240.22649	216.02502	625.60065	311.68655	-121.95217	1068.011	13.706414	-192.62199	961.53973	22.25626	-232.15353	747.32623	5.4487648	-206.9796	715.93567	163.82024	-190.24309	677.83069	245.73294	-231.02736	627.92511	212.19933	-240.1076	648.8327	292.1723	176.42224	753.03815	-187.33766	-113.9556	748.99939	-230.02657	111.75382	804.22235	-381.90405	22.716772	795.22876	-399.23984
